<svg width="174" height="64" viewBox="0 0 174 64" fill="#130722" xmlns="http://www.w3.org/2000/svg">
<g>
<path d="M16.4326 19.4532H0V0H19.4532V16.4326C19.4532 17.2337 19.135 18.002 18.5685 18.5685C18.002 19.135 17.2337 19.4532 16.4326 19.4532Z" />
<path d="M16.4326 41.5581H0V22.1084H16.4326C16.8292 22.1084 17.222 22.1865 17.5885 22.3383C17.955 22.4901 18.288 22.7126 18.5685 22.9931C18.849 23.2736 19.0715 23.6066 19.2233 23.9731C19.3751 24.3396 19.4532 24.7324 19.4532 25.129V38.5375C19.4532 39.3386 19.135 40.1069 18.5685 40.6734C18.002 41.2399 17.2337 41.5581 16.4326 41.5581Z" />
<path d="M19.4532 63.684H0V44.2308H16.4326C17.2337 44.2308 18.002 44.5491 18.5685 45.1156C19.135 45.682 19.4532 46.4504 19.4532 47.2515V63.684Z" />
<path d="M41.5303 19.4532H25.1013C24.2998 19.4532 23.5312 19.1351 22.9641 18.5687C22.3971 18.0023 22.0781 17.234 22.0771 16.4326V0C24.6318 0 27.1614 0.503172 29.5216 1.48079C31.8817 2.4584 34.0262 3.89131 35.8326 5.69771C37.639 7.50411 39.0719 9.64861 40.0496 12.0088C41.0272 14.369 41.5303 16.8986 41.5303 19.4532Z" />
<path d="M41.5303 41.5581H25.1013C24.7043 41.5586 24.3111 41.4808 23.9443 41.3292C23.5774 41.1776 23.244 40.9552 22.9631 40.6746C22.6822 40.3941 22.4594 40.0609 22.3074 39.6942C22.1554 39.3275 22.0771 38.9344 22.0771 38.5375V25.129C22.0771 24.7321 22.1554 24.339 22.3074 23.9723C22.4594 23.6056 22.6822 23.2724 22.9631 22.9919C23.244 22.7114 23.5774 22.4889 23.9443 22.3373C24.3111 22.1857 24.7043 22.1079 25.1013 22.1084H41.5303V41.5581Z" />
<path d="M22.0771 63.684V47.234C22.0781 46.4326 22.3971 45.6643 22.9641 45.0979C23.5312 44.5315 24.2998 44.2134 25.1013 44.2134H41.5303C41.5326 46.7695 41.0311 49.301 40.0546 51.6631C39.078 54.0253 37.6454 56.1719 35.8388 57.9801C34.0322 59.7884 31.8869 61.2228 29.5256 62.2015C27.1643 63.1802 24.6332 63.684 22.0771 63.684Z" />
<path d="M63.6109 0H44.1577V19.4532H63.6109V0Z" />
<path d="M63.6109 22.1084H44.1577V41.5616H63.6109V22.1084Z" />
<path d="M44.1577 63.684V44.2308H63.6109C63.6109 49.3901 61.5614 54.3381 57.9132 57.9863C54.265 61.6345 49.317 63.684 44.1577 63.684Z" />
<path d="M66.2349 19.4532V0H85.6881C85.6881 5.15931 83.6385 10.1073 79.9903 13.7555C76.3422 17.4037 71.3942 19.4532 66.2349 19.4532Z" />
<path d="M85.6881 22.1084H66.2349V41.5616H85.6881V22.1084Z" />
<path d="M107.765 19.4532H88.312V0C93.4713 0 98.4193 2.04953 102.067 5.69771C105.716 9.34589 107.765 14.2939 107.765 19.4532Z" />
<path d="M107.765 22.1084H88.312V41.5616H107.765V22.1084Z" />
<path d="M107.765 44.2134H88.312V63.6666H107.765V44.2134Z" />
<path d="M129.842 0H110.389V19.4532H129.842V0Z" />
<path d="M129.842 22.1084H110.389V41.5616H129.842V22.1084Z" />
<path d="M129.842 63.684C124.683 63.684 119.735 61.6345 116.087 57.9863C112.439 54.3381 110.389 49.3901 110.389 44.2308H129.842V63.684Z" />
<path d="M148.899 19.4532H132.47C132.47 14.2939 134.519 9.34589 138.167 5.69771C141.816 2.04953 146.764 0 151.923 0V0V16.4326C151.922 17.234 151.603 18.0023 151.036 18.5687C150.469 19.1351 149.7 19.4532 148.899 19.4532Z" />
<path d="M151.923 41.5581C149.368 41.5586 146.839 41.0558 144.479 40.0786C142.119 39.1014 139.974 37.6688 138.168 35.8627C136.361 34.0565 134.928 31.9123 133.951 29.5523C132.973 27.1923 132.47 24.6629 132.47 22.1084H148.899C149.296 22.1079 149.689 22.1857 150.056 22.3373C150.423 22.4889 150.756 22.7114 151.037 22.9919C151.318 23.2724 151.541 23.6056 151.693 23.9723C151.845 24.339 151.923 24.7321 151.923 25.129V41.5581Z" />
<path d="M151.923 63.684H132.47V44.2308H148.899C149.7 44.2308 150.469 44.549 151.036 45.1154C151.603 45.6817 151.922 46.45 151.923 47.2515V63.684Z" />
<path d="M174 19.4532H157.568C156.766 19.4532 155.998 19.135 155.432 18.5685C154.865 18.002 154.547 17.2337 154.547 16.4326V0H174V19.4532Z" />
<path d="M154.547 22.1084C157.101 22.1079 159.631 22.6107 161.991 23.5879C164.351 24.5652 166.496 25.9977 168.302 27.8039C170.109 29.61 171.542 31.7543 172.519 34.1142C173.497 36.4742 174 39.0036 174 41.5581H157.568C156.766 41.5581 155.998 41.2399 155.432 40.6734C154.865 40.1069 154.547 39.3386 154.547 38.5375V22.1084Z" />
<path d="M154.547 63.684V47.234C154.547 46.4329 154.865 45.6646 155.432 45.0981C155.998 44.5316 156.766 44.2134 157.568 44.2134H174C174.002 46.7695 173.501 49.301 172.524 51.6631C171.548 54.0253 170.115 56.1719 168.309 57.9801C166.502 59.7884 164.357 61.2228 161.995 62.2015C159.634 63.1802 157.103 63.684 154.547 63.684Z" />
</g>
</svg>
