<svg width="104" height="34" viewBox="0 0 104 34" fill="none" xmlns="http://www.w3.org/2000/svg">
<path d="M14.5391 16.9972V34.0002L29.0785 25.4987V8.50171L14.5391 16.9972Z" fill="#B3ABBC"/>
<path d="M0 8.50171V25.4987L14.5395 34.0002V16.9972L0 8.50171Z" fill="#685879"/>
<path d="M14.5395 0L0 8.50149L14.5395 16.997L29.0789 8.50149L14.5395 0Z" fill="#E5E3E8"/>
<path d="M5.42578 11.6709V22.329L14.5402 27.6611V16.997L5.42578 11.6709Z" fill="#473955"/>
<path d="M14.5402 6.33911L5.42578 11.6712L14.5402 16.9972L23.6604 11.6712L14.5402 6.33911Z" fill="#473955"/>
<path d="M14.5391 16.997V27.6611L23.6593 22.329V11.6709L14.5391 16.997Z" fill="#473955"/>
<path d="M10.0029 14.3459V19.6542L14.5395 22.3053V16.9971L10.0029 14.3459Z" fill="#8FA300"/>
<path d="M14.5395 11.6946L10.0029 14.3457L14.5395 16.9968L19.0761 14.3457L14.5395 11.6946Z" fill="#F4FFA3"/>
<path d="M14.5391 16.9971V22.3053L19.0757 19.6542V14.3459L14.5391 16.9971Z" fill="#E1FF0B"/>
<path d="M61.5624 12.0565C61.5624 10.7771 61.8562 9.6409 62.444 8.64794C63.0318 7.64545 63.8558 6.8673 64.9157 6.31354C65.9852 5.75023 67.2332 5.45903 68.6592 5.43994V8.92005C67.9943 8.9296 67.4258 9.06804 66.9537 9.33538C66.4912 9.59316 66.1347 9.97029 65.8841 10.4668C65.6535 10.9238 65.529 11.4537 65.5107 12.0565H68.5725V15.3647H65.5084V27.8388H61.5624V15.3647H61.5606V12.0565H61.5624Z" fill="#473955"/>
<path d="M83.7775 13.6172C82.61 12.4189 81.0788 11.8197 79.184 11.8197C78.1887 11.8197 77.27 12.0194 76.4279 12.4189C75.6049 12.7993 74.9254 13.3319 74.3895 14.0167V12.0479H70.3702V27.8552H74.3895V19.1241C74.3895 17.8686 74.7053 16.908 75.3369 16.2423C75.9877 15.5575 76.8681 15.2151 77.9782 15.2151C79.0692 15.2151 79.9305 15.5575 80.5621 16.2423C81.1937 16.908 81.5095 17.8686 81.5095 19.1241V27.8552H85.5288V18.582C85.5288 16.4515 84.9451 14.7966 83.7775 13.6172Z" fill="#473955"/>
<path d="M90.6501 27.4921C91.6837 27.9486 92.8512 28.1769 94.1527 28.1769C95.4159 28.1769 96.5165 27.9771 97.4543 27.5777C98.4113 27.1592 99.1386 26.5885 99.6362 25.8657C100.153 25.1429 100.411 24.3249 100.411 23.4119C100.392 22.3656 100.105 21.5287 99.5501 20.901C99.0142 20.2542 98.373 19.7787 97.6266 19.4743C96.8801 19.17 95.9327 18.8751 94.7843 18.5898C93.6551 18.3045 92.8225 18.0286 92.2866 17.7623C91.7507 17.477 91.4827 17.068 91.4827 16.5354C91.4827 16.0599 91.6741 15.689 92.0569 15.4226C92.4588 15.1563 93.0235 15.0232 93.7508 15.0232C94.5355 15.0232 95.1575 15.2134 95.6169 15.5938C96.0954 15.9553 96.3633 16.4498 96.4208 17.0776H100.268C100.153 15.4797 99.531 14.2148 98.4017 13.2827C97.2725 12.3316 95.7604 11.856 93.8656 11.856C92.5832 11.856 91.4636 12.0653 90.5066 12.4838C89.5687 12.9022 88.8414 13.4729 88.3247 14.1957C87.827 14.9186 87.5782 15.7175 87.5782 16.5925C87.5782 17.6577 87.8462 18.5042 88.3821 19.1319C88.9371 19.7596 89.5879 20.2257 90.3343 20.53C91.0999 20.8344 92.076 21.1292 93.2627 21.4146C94.4111 21.7189 95.2437 22.0042 95.7604 22.2705C96.2963 22.5178 96.5643 22.8983 96.5643 23.4119C96.5643 23.8874 96.3442 24.2774 95.904 24.5817C95.4829 24.8861 94.8896 25.0382 94.124 25.0382C93.3393 25.0382 92.6789 24.8385 92.143 24.439C91.6263 24.0396 91.3296 23.5355 91.253 22.9268H87.205C87.2624 23.8969 87.5878 24.7814 88.1811 25.5804C88.7936 26.3793 89.6166 27.0165 90.6501 27.4921Z" fill="#473955"/>
<path fill-rule="evenodd" clip-rule="evenodd" d="M53.9709 7.08591C52.2052 6.17548 50.1524 5.72026 47.8123 5.72026H40.0264V27.8883H47.8123C50.1524 27.8883 52.2052 27.4331 53.9709 26.5227C55.7578 25.6122 57.13 24.3313 58.0872 22.6798C59.0658 21.0071 59.5551 19.0592 59.5551 16.836C59.5551 14.6129 59.0658 12.665 58.0872 10.9923C57.13 9.29848 55.7578 7.99635 53.9709 7.08591ZM53.0774 22.2034C51.801 23.4738 49.9928 24.1089 47.6528 24.1089H44.4937V9.46787H47.6528C49.9928 9.46787 51.801 10.1242 53.0774 11.4369C54.3538 12.7285 54.992 14.5282 54.992 16.836C54.992 19.1439 54.3538 20.933 53.0774 22.2034Z" fill="#473955"/>
</svg>
