<svg width="104" height="34" viewBox="0 0 104 34" fill="none" xmlns="http://www.w3.org/2000/svg">
<path d="M14.5395 16.9972V34.0002L29.0789 25.4987V8.50166L14.5395 16.9972Z" fill="#B3ABBC"/>
<path d="M3.05176e-05 8.50166V25.4987L14.5395 34.0002V16.9972L3.05176e-05 8.50166Z" fill="#685879"/>
<path d="M14.5395 0L0 8.50149L14.5395 16.997L29.0789 8.50149L14.5395 0Z" fill="#E5E3E8"/>
<path d="M5.4256 11.6709V22.329L14.54 27.6611V16.997L5.4256 11.6709Z" fill="#473955"/>
<path d="M14.54 6.33904L5.4256 11.6711L14.54 16.9972L23.6602 11.6711L14.54 6.33904Z" fill="#473955"/>
<path d="M14.5395 16.997V27.6611L23.6597 22.329V11.6709L14.5395 16.997Z" fill="#473955"/>
<path d="M10.0026 14.3459V19.6542L14.5392 22.3053V16.9971L10.0026 14.3459Z" fill="#8FA300"/>
<path d="M14.5392 11.6947L10.0026 14.3458L14.5392 16.9969L19.0758 14.3458L14.5392 11.6947Z" fill="#F4FFA3"/>
<path d="M14.5395 16.9971V22.3053L19.0761 19.6542V14.3459L14.5395 16.9971Z" fill="#E1FF0B"/>
<path d="M61.5623 12.0565C61.5623 10.7771 61.8561 9.64095 62.444 8.64799C63.0317 7.64549 63.8557 6.86735 64.9157 6.31359C65.9852 5.75028 67.2332 5.45907 68.6592 5.43999V8.92009C67.9943 8.92964 67.4258 9.06809 66.9537 9.33542C66.4911 9.59321 66.1346 9.97034 65.884 10.4668C65.6534 10.9239 65.5289 11.4538 65.5107 12.0565H68.5725V15.3648H65.5083V27.8388H61.5623V15.3648H61.5606V12.0565H61.5623Z" fill="#F2EBF9"/>
<path d="M83.7775 13.6173C82.61 12.4189 81.0788 11.8197 79.1839 11.8197C78.1887 11.8197 77.27 12.0194 76.4278 12.4189C75.6048 12.7993 74.9254 13.332 74.3894 14.0168V12.048H70.3701V27.8552H74.3894V19.1241C74.3894 17.8687 74.7053 16.9081 75.3369 16.2423C75.9876 15.5575 76.868 15.2151 77.9781 15.2151C79.0691 15.2151 79.9304 15.5575 80.562 16.2423C81.1936 16.9081 81.5094 17.8687 81.5094 19.1241V27.8552H85.5288V18.582C85.5288 16.4516 84.945 14.7967 83.7775 13.6173Z" fill="#F2EBF9"/>
<path d="M90.6501 27.4921C91.6836 27.9486 92.8511 28.1769 94.1526 28.1769C95.4159 28.1769 96.5164 27.9772 97.4542 27.5777C98.4112 27.1592 99.1385 26.5886 99.6362 25.8657C100.153 25.1429 100.411 24.325 100.411 23.4119C100.392 22.3657 100.105 21.5287 99.55 20.901C99.0141 20.2543 98.3729 19.7787 97.6265 19.4744C96.88 19.17 95.9326 18.8752 94.7842 18.5898C93.655 18.3045 92.8224 18.0287 92.2865 17.7624C91.7506 17.4771 91.4826 17.0681 91.4826 16.5355C91.4826 16.0599 91.674 15.689 92.0568 15.4227C92.4588 15.1564 93.0234 15.0232 93.7507 15.0232C94.5354 15.0232 95.1575 15.2134 95.6168 15.5939C96.0953 15.9553 96.3633 16.4499 96.4207 17.0776H100.268C100.153 15.4798 99.5309 14.2148 98.4017 13.2827C97.2724 12.3316 95.7604 11.8561 93.8655 11.8561C92.5832 11.8561 91.4635 12.0653 90.5065 12.4838C89.5687 12.9023 88.8414 13.4729 88.3246 14.1958C87.827 14.9186 87.5781 15.7175 87.5781 16.5925C87.5781 17.6578 87.8461 18.5042 88.382 19.132C88.9371 19.7597 89.5878 20.2257 90.3343 20.5301C91.0999 20.8344 92.076 21.1293 93.2626 21.4146C94.411 21.719 95.2436 22.0043 95.7604 22.2706C96.2963 22.5179 96.5642 22.8983 96.5642 23.4119C96.5642 23.8875 96.3441 24.2774 95.9039 24.5817C95.4829 24.8861 94.8895 25.0383 94.1239 25.0383C93.3392 25.0383 92.6789 24.8385 92.143 24.4391C91.6262 24.0396 91.3295 23.5355 91.253 22.9268H87.2049C87.2623 23.897 87.5877 24.7815 88.181 25.5804C88.7935 26.3793 89.6165 27.0166 90.6501 27.4921Z" fill="#F2EBF9"/>
<path fill-rule="evenodd" clip-rule="evenodd" d="M53.9708 7.08596C52.2052 6.17552 50.1523 5.7203 47.8123 5.7203H40.0263V27.8884H47.8123C50.1523 27.8884 52.2052 27.4331 53.9708 26.5227C55.7578 25.6123 57.1299 24.3313 58.0872 22.6798C59.0658 21.0072 59.555 19.0593 59.555 16.8361C59.555 14.6129 59.0658 12.665 58.0872 10.9924C57.1299 9.29853 55.7578 7.99639 53.9708 7.08596ZM53.0774 22.2034C51.801 23.4738 49.9928 24.109 47.6527 24.109H44.4937V9.46791H47.6527C49.9928 9.46791 51.801 10.1243 53.0774 11.437C54.3538 12.7285 54.9919 14.5282 54.9919 16.8361C54.9919 19.1439 54.3538 20.9331 53.0774 22.2034Z" fill="#F2EBF9"/>
</svg>
