<svg width="64" height="64" viewBox="0 0 64 64" fill="none" xmlns="http://www.w3.org/2000/svg">
<path d="M31.8844 8.89307L50.9732 15.1498C50.9732 15.1498 53.1755 28.1266 49.418 37.5518C45.6604 46.9771 31.8844 53.1086 31.8844 53.1086C31.8844 53.1086 17.5401 45.7477 13.9121 36.1858C11.0125 28.544 13.1345 15.1498 13.1345 15.1498L31.8844 8.89307Z" fill="#21B5F5"/>
<path d="M25.4609 29.5489C25.4609 28.4377 26.3393 27.5368 27.4227 27.5368H36.5777C37.6612 27.5368 38.5395 28.4377 38.5395 29.5489V35.5852C38.5395 36.6964 37.6612 37.5972 36.5777 37.5972H27.4227C26.3393 37.5972 25.4609 36.6964 25.4609 35.5852V29.5489Z" fill="#006FF2"/>
<path d="M35.9238 27.5368V24.1833C35.9238 21.9609 34.1671 20.1592 32.0002 20.1592C29.8333 20.1592 28.0766 21.9609 28.0766 24.1833V27.5368M27.4227 37.5972H36.5777C37.6612 37.5972 38.5395 36.6964 38.5395 35.5852V29.5489C38.5395 28.4377 37.6612 27.5368 36.5777 27.5368H27.4227C26.3393 27.5368 25.4609 28.4377 25.4609 29.5489V35.5852C25.4609 36.6964 26.3393 37.5972 27.4227 37.5972Z" stroke="#DCF5FF" stroke-width="2" stroke-linecap="round" stroke-linejoin="round"/>
</svg>
