<svg width="49" height="16" viewBox="0 0 49 16" fill="none" xmlns="http://www.w3.org/2000/svg">
<path d="M7.68042 7.9987V16L14.441 11.9993V4.00061L7.68042 7.9987Z" fill="#9A94A1"/>
<path d="M0.921143 4.00061V11.9993L7.68051 16V7.9987L0.921143 4.00061Z" fill="#685F73"/>
<path d="M7.68051 0L0.921143 4.00064L7.68051 7.99872L14.4411 4.00064L7.68051 0Z" fill="#D7D4DA"/>
<path d="M7.6818 2.98267L3.44336 5.49262V10.5074L7.68054 13.0174H7.6818L11.9215 10.5074V5.49262L7.6818 2.98267Z" fill="#352944"/>
<path d="M5.57178 6.75134V9.24983L7.68157 10.4972V7.99867L5.57178 6.75134Z" fill="#685F73"/>
<path d="M7.68059 5.50403L5.5708 6.75136L7.68059 7.99869L9.79038 6.75136L7.68059 5.50403Z" fill="#D7D4DA"/>
<path d="M7.68042 7.99867V10.4972L9.79021 9.24983V6.75134L7.68042 7.99867Z" fill="#9A94A1"/>
<g opacity="0.7">
<path d="M29.5713 5.83362C29.5713 5.23156 29.7069 4.69689 29.9782 4.22962C30.2495 3.75785 30.6298 3.39167 31.119 3.13108C31.6126 2.86599 32.1886 2.72895 32.8468 2.71997V4.35767C32.5399 4.36216 32.2775 4.42731 32.0596 4.55312C31.8461 4.67443 31.6816 4.8519 31.5659 5.08553C31.4595 5.30063 31.402 5.54999 31.3936 5.83362H32.8067V7.39045H31.3925V13.2606H29.5713V7.39045H29.5705V5.83362H29.5713Z" fill="#170E25"/>
<path d="M39.8244 6.56811C39.2856 6.00417 38.5789 5.7222 37.7043 5.7222C37.245 5.7222 36.821 5.81619 36.4323 6.00417C36.0524 6.1832 35.7388 6.43384 35.4915 6.7561V5.82962H33.6364V13.2683H35.4915V9.15957C35.4915 8.56877 35.6373 8.11672 35.9288 7.80342C36.2291 7.48117 36.6355 7.32004 37.1478 7.32004C37.6513 7.32004 38.0489 7.48117 38.3404 7.80342C38.6319 8.11672 38.7776 8.56877 38.7776 9.15957V13.2683H40.6327V8.90445C40.6327 7.90189 40.3633 7.12311 39.8244 6.56811Z" fill="#170E25"/>
<path d="M42.9964 13.0974C43.4734 13.3123 44.0123 13.4197 44.613 13.4197C45.196 13.4197 45.7039 13.3257 46.1368 13.1377C46.5785 12.9408 46.9142 12.6722 47.1438 12.3321C47.3823 11.9919 47.5016 11.607 47.5016 11.1773C47.4928 10.685 47.3603 10.2911 47.1041 9.99575C46.8567 9.69139 46.5608 9.46761 46.2163 9.32438C45.8718 9.18116 45.4345 9.04241 44.9045 8.90814C44.3833 8.77387 43.999 8.64407 43.7517 8.51875C43.5043 8.38447 43.3807 8.19202 43.3807 7.94138C43.3807 7.71759 43.469 7.54303 43.6457 7.41771C43.8312 7.29239 44.0918 7.22973 44.4275 7.22973C44.7897 7.22973 45.0767 7.31925 45.2888 7.49828C45.5096 7.66835 45.6333 7.90109 45.6598 8.19649H47.4353C47.3823 7.44457 47.0953 6.84929 46.5741 6.41067C46.0529 5.96309 45.355 5.73931 44.4805 5.73931C43.8886 5.73931 43.3718 5.83777 42.9302 6.03471C42.4973 6.23164 42.1616 6.50018 41.9231 6.84034C41.6934 7.1805 41.5786 7.55646 41.5786 7.96823C41.5786 8.46951 41.7023 8.86786 41.9496 9.16325C42.2058 9.45865 42.5061 9.67797 42.8507 9.82119C43.204 9.96441 43.6545 10.1032 44.2022 10.2374C44.7322 10.3807 45.1165 10.5149 45.355 10.6403C45.6024 10.7566 45.726 10.9357 45.726 11.1773C45.726 11.4011 45.6244 11.5846 45.4213 11.7279C45.2269 11.8711 44.9531 11.9427 44.5997 11.9427C44.2375 11.9427 43.9328 11.8487 43.6854 11.6607C43.4469 11.4727 43.31 11.2355 43.2747 10.9491H41.4063C41.4328 11.4056 41.583 11.8219 41.8569 12.1978C42.1395 12.5738 42.5194 12.8737 42.9964 13.0974Z" fill="#170E25"/>
<path fill-rule="evenodd" clip-rule="evenodd" d="M26.0675 3.49454C25.2526 3.0661 24.3051 2.85188 23.2251 2.85188H19.6316V13.2839H23.2251C24.3051 13.2839 25.2526 13.0697 26.0675 12.6413C26.8923 12.2128 27.5256 11.61 27.9674 10.8328C28.419 10.0457 28.6449 9.12904 28.6449 8.08284C28.6449 7.03665 28.419 6.11999 27.9674 5.33285C27.5256 4.53576 26.8923 3.92299 26.0675 3.49454ZM25.6552 10.6086C25.0661 11.2065 24.2315 11.5054 23.1515 11.5054H21.6934V4.61546H23.1515C24.2315 4.61546 25.0661 4.92434 25.6552 5.54209C26.2443 6.14988 26.5388 6.9968 26.5388 8.08284C26.5388 9.16889 26.2443 10.0108 25.6552 10.6086Z" fill="#170E25"/>
</g>
</svg>
