<svg width="110" height="10" viewBox="0 0 110 10" fill="none" xmlns="http://www.w3.org/2000/svg">
<g clip-path="url(#clip0_2586_2058)">
<path d="M30.7211 9.86668H29.2653L27.1699 6.72523C27.1354 6.72769 27.0992 6.72769 27.0638 6.72769H23.3072V5.51881H27.0638C28.2542 5.51881 29.2225 4.55334 29.2225 3.36577C29.2225 2.1782 28.2542 1.21355 27.0638 1.21355H23.3047V0.00549316H27.0638C28.9216 0.00549316 30.4342 1.5127 30.4342 3.36577C30.4342 4.73365 29.6105 5.91221 28.4325 6.43674L30.7211 9.86668Z" fill="#170E25"/>
<path d="M20.2659 5.51471H21.4784V8.4275C21.4612 8.44635 21.4423 8.46356 21.4242 8.47913C20.1229 9.69539 18.9589 9.86668 17.8911 9.86668C16.4986 9.86668 15.1118 9.12578 14.1812 7.88494C13.2203 6.60393 12.9589 4.77873 13.5154 3.23546C14.0538 1.74464 15.559 0.00549316 18.0333 0.00549316C20.1426 0.00549316 21.0863 0.925882 21.5935 1.42091C21.6453 1.47008 21.6922 1.51598 21.7374 1.55778L20.9145 2.44538C20.8627 2.39703 20.8068 2.34294 20.746 2.28393C20.2832 1.83234 19.6478 1.21355 18.0333 1.21355C16.1887 1.21355 15.0608 2.52242 14.6564 3.64443C14.233 4.81479 14.4279 6.19496 15.1521 7.16043C15.8549 8.09803 16.8792 8.6578 17.8903 8.6578C18.6301 8.6578 19.3707 8.59224 20.2651 7.88084V5.51389L20.2659 5.51471Z" fill="#170E25"/>
<path d="M39.5958 0L36.454 8.10155L33.3122 0H31.9648L35.807 9.86611H36.454H37.1009L40.9423 0H39.5958Z" fill="#170E25"/>
<path d="M45.8677 1.21544H42.7678V0H50.1891V1.21544H47.0893V9.86611H45.8677V1.21544Z" fill="#170E25"/>
<path d="M9.96235 4.99762C9.96235 4.7939 9.95004 4.59264 9.92542 4.39464H8.70191V5.60059C8.41224 7.36452 6.87279 8.71529 5.02317 8.71529C2.96757 8.71529 1.29437 7.04708 1.29437 4.99762C1.29437 2.94816 2.96757 1.27995 5.02317 1.27995V0.0731812C2.30042 0.0731812 0.0839844 2.283 0.0839844 4.99762C0.0839844 7.71224 2.29878 9.92206 5.02317 9.92206C7.74755 9.92206 9.96235 7.71224 9.96235 4.99762Z" fill="#170E25"/>
<path d="M9.92545 5.60024H6.49095C6.15724 5.60024 5.88672 5.33052 5.88672 4.99781C5.88672 4.6651 6.15724 4.39539 6.49095 4.39539L9.92513 4.39539C9.98296 4.79246 9.98342 5.19575 9.9265 5.59295L9.92545 5.60024Z" fill="#21B5F5"/>
<path d="M9.82054 3.48101L5.62586 3.48101C5.29207 3.48101 5.02148 3.21123 5.02148 2.87845C5.02148 2.54566 5.29207 2.27588 5.62585 2.27588L9.13917 2.27588L9.14736 2.28433C9.47131 2.61882 9.70318 3.031 9.82054 3.48101Z" fill="#2946A7"/>
</g>
<path d="M62.5529 0.000488281L64.9309 9.15076L67.8201 0.000488281H68.4946L65.3871 9.869H64.4844L62.1453 0.955737L59.811 9.869H58.9083L55.8008 0.000488281H56.4754L59.3645 9.15076L61.7376 0.000488281H62.5529Z" fill="#170E25"/>
<path d="M68.385 9.86851L69.07 9.8689L72.2536 0.869456L75.4323 9.8689H76.1135L72.6242 0.000395229L71.8743 0L68.385 9.86851Z" fill="#170E25"/>
<path d="M78.5803 9.86906V0.000549316H79.2218V9.22518H84.0594V9.86906H78.5803Z" fill="#170E25"/>
<path d="M87.2578 9.86906V0.000549316H87.8993V9.22518H92.7369V9.86906H87.2578Z" fill="#170E25"/>
<path d="M95.2209 0.000549316V9.86906H100.85V9.22538H95.881V0.644836H100.778V0.000549316H95.2209Z" fill="#170E25"/>
<path d="M100.206 4.61432H97.166V5.25491H100.206V4.61432Z" fill="#170E25"/>
<path d="M106.988 0.644727V9.86906H106.342V0.644727H103.332V0.000549316H110V0.644727H106.988Z" fill="#170E25"/>
<defs>
<clipPath id="clip0_2586_2058">
<rect width="50.1497" height="10" fill="white" transform="translate(-0.00195312)"/>
</clipPath>
</defs>
</svg>
