<svg width="24" height="24" viewBox="0 0 24 24" fill="none" xmlns="http://www.w3.org/2000/svg">
<path d="M16.6667 9.97287H7.33333C6.59695 9.97287 6 10.5698 6 11.3062V16.9729C6 17.7092 6.59695 18.3062 7.33333 18.3062H16.6667C17.403 18.3062 18 17.7092 18 16.9729V11.3062C18 10.5698 17.403 9.97287 16.6667 9.97287Z" stroke="#170E25" stroke-linecap="round"/>
<path d="M9 9.63953V8.97286C9 8.0888 9.31607 7.24096 9.87868 6.61584C10.4413 5.99072 11.2044 5.63953 12 5.63953C12.7956 5.63953 13.5587 5.99072 14.1213 6.61584C14.6839 7.24096 15 8.0888 15 8.97286V9.63953" stroke="#170E25" stroke-linecap="square" stroke-linejoin="round"/>
</svg>
