<svg width="201" height="200" viewBox="0 0 201 200" fill="none" xmlns="http://www.w3.org/2000/svg">
<circle cx="100.505" cy="100.001" r="57.4277" stroke="#006FF2" stroke-width="11.5371"/>
<rect x="63.0284" y="62.5237" width="74.9531" height="74.9531" rx="37.4765" fill="#21B5F5"/>
<circle cx="83.3213" cy="100" r="3" fill="#DCF5FF"/>
<circle cx="100.321" cy="100" r="3" fill="#DCF5FF"/>
<circle cx="117.321" cy="100" r="3" fill="#DCF5FF"/>
<rect x="11.9749" y="81.6067" width="36.7872" height="36.7872" rx="18.3936" fill="#21B5F5"/>
<path d="M39.364 116.048C44.9726 112.897 48.762 106.891 48.762 100C48.762 93.1094 44.9728 87.1036 39.3643 83.9529C38.0229 89.0775 37.3087 94.4558 37.3087 100.001C37.3087 105.546 38.0228 110.924 39.364 116.048Z" fill="#DCF5FF"/>
<rect x="152.216" y="81.6067" width="36.7872" height="36.7872" rx="18.3936" fill="#21B5F5"/>
<path d="M161.642 83.936C156.018 87.0825 152.216 93.0969 152.216 99.9993C152.216 106.902 156.018 112.916 161.642 116.063C162.986 110.934 163.701 105.55 163.701 100C163.701 94.4491 162.986 89.0654 161.642 83.936Z" fill="#DCF5FF"/>
</svg>
