<svg width="361" height="346" viewBox="0 0 361 346" fill="none" xmlns="http://www.w3.org/2000/svg">
<path d="M80.5052 207.941C80.5052 152.715 125.274 107.946 180.5 107.946C235.726 107.946 280.495 152.715 280.495 207.941" stroke="#006FF2" stroke-width="18.255"/>
<path d="M113.82 207.94C113.82 171.113 143.674 141.26 180.5 141.26C217.327 141.26 247.18 171.113 247.18 207.94" stroke="#21B5F5" stroke-width="18.255"/>
<rect x="210.613" y="238.054" width="60.226" height="60.226" rx="30.113" transform="rotate(-180 210.613 238.054)" fill="#E04778"/>
<path d="M180.5 208.193L173.867 201.56L173.16 202.267L179.793 208.9L173.16 215.533L173.867 216.24L180.5 209.607L187.133 216.239L187.84 215.532L181.207 208.9L187.84 202.267L187.132 201.56L180.5 208.193Z" fill="white"/>
</svg>
